HIERARCHY
ROOT pelvis
{
  OFFSET 0 100 0
  CHANNELS 6 Xposition Yposition Zposition Zrotation Xrotation Yrotation
  JOINT pelvis_right_femur
  {
    OFFSET -10.78128 -3.44521 -0.5502486
    CHANNELS 3 Zrotation Xrotation Yrotation
    JOINT right_femur_tibia
    {
      OFFSET -0.8047443 -44.0398 -0.1307829
      CHANNELS 3 Zrotation Xrotation Yrotation
      JOINT right_tibia_foot
      {
        OFFSET 3.006224 -47.83518 -5
        CHANNELS 3 Zrotation Xrotation Yrotation
        End Site
        {
          OFFSET 0 -5 15
        }
      }
    }
  }
  JOINT pelvis_left_femur
  {
    OFFSET 10.78128 -3.44521 -0.5502486
    CHANNELS 3 Zrotation Xrotation Yrotation
    JOINT left_femur_tibia
    {
      OFFSET 0.8047443 -44.0398 -0.1307829
      CHANNELS 3 Zrotation Xrotation Yrotation
      JOINT left_tibia_foot
      {
        OFFSET -4.370144 -48.10324 -4.275266
        CHANNELS 3 Zrotation Xrotation Yrotation
        End Site
        {
          OFFSET 0 -5 15
        }
      }
    }
  }
  JOINT pelvis_spine1
  {
    OFFSET 0 6.468898 -3.129235
    CHANNELS 3 Zrotation Xrotation Yrotation
    JOINT spine1
    {
      OFFSET 0 23.15396 4.99043
      CHANNELS 3 Zrotation Xrotation Yrotation
      JOINT spine2
      {
        OFFSET 0 20.79997 -5.064912
        CHANNELS 3 Zrotation Xrotation Yrotation
        JOINT neck
        {
          OFFSET 0 14.38658 9.616178
          CHANNELS 3 Zrotation Xrotation Yrotation
          End Site
          {
            OFFSET 0 20 0
          }
        }
      }
      JOINT right_manubrium
      {
        OFFSET -5.722621 16.35077 3.967754
        CHANNELS 3 Zrotation Xrotation Yrotation
        JOINT right_clavicle
        {
          OFFSET -13.16364 1.694482 -4.693211
          CHANNELS 3 Zrotation Xrotation Yrotation
          JOINT right_humerus
          {
            OFFSET -28.5034 -0.3100689 -2.792744
            CHANNELS 3 Zrotation Xrotation Yrotation
            JOINT right_radius
            {
              OFFSET -25.15693 0.02248979 -1.271978
              CHANNELS 3 Zrotation Xrotation Yrotation
              End Site
              {
                OFFSET -15 0 0
              }
            }
          }
        }
      }
      JOINT left_manubrium
      {
        OFFSET 5.722621 16.35077 3.967754
        CHANNELS 3 Zrotation Xrotation Yrotation
        JOINT left_clavicle
        {
          OFFSET 13.16364 1.694482 -4.693211
          CHANNELS 3 Zrotation Xrotation Yrotation
          JOINT left_humerus
          {
            OFFSET 29.39168 -1.063119 -2.237045
            CHANNELS 3 Zrotation Xrotation Yrotation
            JOINT left_radius
            {
              OFFSET 24.59957 -0.9528479 0.9047498
              CHANNELS 3 Zrotation Xrotation Yrotation
              End Site
              {
                OFFSET 15 -0 -0
              }
            }
          }
        }
      }
    }
  }
}
MOTION
Frames: 19
Frame Time: 0.0416666666667
0 103.5113 0 0.9166886 -1.515628 0.2444538 2.739377 -15.16223 7.327608 -0 39.29256 -0 -6.128057 -13.47114 -2.737517 -7.201473 5.646499 -21.90074 -0 4.862953 -0 6.8788 -17.77021 25.29436 -1.321269 -1.403807 4.64809 3.039838 7.26439 -8.385096 1.041003 21.09524 7.313676 2.32363 -27.28023 9.700086 5.079523 -19.57563 11.31583 88.13873 36.80675 -22.71322 -0 0 15.54833 -6.789612 10.50053 5.687005 3.451892 -18.72637 -1.157608 -97.90138 38.60082 28.77047 0 0 -25.31723 -7.89288 11.9977 27.34685
0.4747819 103.8245 1.302511 0.9915716 -1.602097 0.5086315 2.742265 -16.03778 7.836492 -0 42.17531 -0 -5.960225 -13.07798 -2.995463 -7.491135 6.945083 -22.55876 -0 6.264619 -0 7.038444 -17.88197 25.53963 -1.256853 -1.535005 4.61308 3.142114 7.330921 -8.536616 0.9814283 21.02371 7.338408 2.35657 -27.65762 9.71286 5.056526 -19.76897 11.37674 88.51085 36.92094 -23.22138 -0 0 15.49516 -6.270841 10.30928 5.437309 3.476724 -18.96369 -1.174012 -98.18167 38.61046 29.18673 0 0 -25.63709 -7.711925 12.37749 27.158
0.7784423 103.8871 3.199287 0.7154157 -1.276289 0.8100503 3.192176 -21.78178 6.399467 -0 36.49352 -0 -6.252004 -10.79661 -3.451103 -6.827259 11.74657 -21.15122 -0 6.266067 -0 6.038167 -19.43739 23.48132 -1.394299 -1.381851 4.451839 3.038246 7.39533 -8.451956 1.008379 21.13839 7.392156 2.483689 -26.99593 9.61703 5.128303 -19.17052 11.32644 88.35795 36.80338 -22.97029 -0 0 14.80213 -7.209731 10.58649 5.706955 3.715822 -19.09984 -1.324272 -96.55016 37.67527 26.99027 0 0 -25.52625 -6.687968 12.39518 25.54336
0.9883202 103.691 5.410737 0.5046916 -0.9349221 1.105155 3.492256 -24.88729 5.470272 -0 31.62533 -0 -6.630312 -10.02477 -3.550003 -6.373938 13.97917 -20.28924 -0 5.639709 -0 5.554143 -20.27004 22.32818 -1.427033 -1.372396 4.392648 3.024828 7.460902 -8.455503 0.9925142 21.156 7.42275 2.557706 -26.86187 9.569959 5.154773 -19.0313 11.33823 88.37384 36.81072 -22.9688 -0 0 14.55772 -7.43338 10.63031 5.752195 3.822183 -19.23261 -1.39036 -96.05206 37.2123 26.34427 0 0 -25.49423 -6.151597 12.55917 24.74093
1.127302 103.1969 8.10039 0.304629 -0.7741045 1.400462 3.608128 -27.24567 4.283559 -0 26.48074 -0 -6.864115 -8.936592 -3.634644 -5.890917 15.61319 -18.9448 -0 5.132872 -0 4.696025 -20.90114 20.88869 -1.479608 -1.336532 4.171862 3.051401 7.513823 -8.567597 0.9873089 21.2018 7.479645 2.641281 -26.64226 9.547201 5.160499 -18.59968 11.30913 88.75836 36.73017 -23.46933 -0 0 13.77429 -7.661921 10.69338 5.676537 4.025289 -19.56048 -1.526491 -94.89978 36.71273 24.71274 0 0 -26.02648 -5.377591 12.73411 23.59088
1.223029 102.4621 11.36142 0.1574384 -0.8585445 1.70991 3.547513 -28.73661 3.075016 -0 22.29369 -0 -6.873187 -7.523992 -3.770799 -5.489222 16.7365 -17.36196 -0 5.311059 -0 3.550978 -21.23302 19.34449 -1.514715 -1.322274 3.957499 3.097341 7.560972 -8.703464 0.9771407 21.23303 7.533102 2.711842 -26.51039 9.537886 5.155665 -18.22648 11.28592 89.20088 36.65916 -24.05352 -0 0 13.0333 -7.758418 10.71791 5.549938 4.207554 -19.89588 -1.649555 -93.91852 36.30731 23.29661 0 0 -26.62364 -4.696249 12.91677 22.59635
1.297223 101.567 15.28774 0.05893307 -1.184544 2.043018 3.375554 -29.54086 1.874353 -0 19.02463 -0 -6.673126 -5.761916 -3.995091 -5.161161 17.5236 -15.54995 -0 6.462954 -0 2.112267 -21.25324 17.67291 -1.554827 -1.295862 3.70393 3.151042 7.59758 -8.863136 0.9738691 21.27396 7.589708 2.777243 -26.34842 9.53793 5.142398 -17.77503 11.24812 89.73047 36.54881 -24.75521 -0 0 12.1624 -7.861807 10.75225 5.396497 4.407118 -20.26713 -1.786477 -92.80339 35.89903 21.6503 0 0 -27.36831 -3.994676 13.06603 21.57201
1.366534 100.6159 19.92591 0.004728021 -1.714721 2.398199 3.186632 -29.73596 0.7903337 -0 16.64673 -0 -6.31841 -3.814537 -4.312356 -4.902803 18.00676 -13.62374 -0 8.798508 -0 0.4785129 -20.92306 15.97161 -1.596093 -1.261224 3.457797 3.19801 7.626406 -9.011424 0.9759959 21.31869 7.641289 2.834361 -26.16906 9.539435 5.126922 -17.32271 11.20585 90.23188 36.42099 -25.41698 -0 0 11.31494 -7.987301 10.79632 5.258209 4.596672 -20.61343 -1.917887 -91.73063 35.49423 20.03972 0 0 -28.0902 -3.341844 13.17056 20.61559
1.442954 99.73296 25.27464 -0.00901568 -2.421874 2.760141 3.073588 -29.29007 -0.06578288 -0 15.1144 -0 -5.861865 -1.872451 -4.715018 -4.697172 18.11101 -11.68163 -0 12.55111 -0 -1.25406 -20.17641 14.35202 -1.643635 -1.208465 3.247586 3.218614 7.648826 -9.112611 0.9869853 21.37133 7.68197 2.883108 -25.93632 9.5325 5.115525 -16.89196 11.1607 90.60157 36.28045 -25.89502 -0 0 10.57529 -8.208187 10.86993 5.187878 4.764465 -20.88502 -2.036079 -90.7527 35.06457 18.55223 0 0 -28.65078 -2.761515 13.20252 19.74973
1.531869 99.06261 31.26871 0.01367299 -3.276428 3.096807 3.129851 -28.10051 -0.5601601 -0 14.426 -0 -5.366099 -0.1826752 -5.178835 -4.518948 17.68836 -9.85336 -0 17.96252 -0 -2.961795 -18.93722 12.96831 -1.697416 -1.136053 3.1207 3.192713 7.668802 -9.123844 1.007062 21.42953 7.703295 2.922368 -25.64145 9.50593 5.11563 -16.54959 11.12086 90.70766 36.15056 -26.00791 -0 0 10.09427 -8.573081 10.98212 5.24247 4.886454 -21.01508 -2.124665 -90.00939 34.61069 17.41515 0 0 -28.85748 -2.308998 13.14631 19.04649
1.629496 98.76066 37.76027 0.06560848 -4.235051 3.357412 3.430742 -26.00342 -0.5568889 -0 14.59087 -0 -4.912915 0.9396939 -5.65133 -4.332632 16.5166 -8.306544 -0 25.16937 -0 -4.488834 -17.14393 12.01666 -1.758414 -1.041237 3.123165 3.099313 7.690479 -9.001707 1.036934 21.49196 7.696852 2.951647 -25.2703 9.448046 5.134232 -16.35775 11.09374 90.42003 36.04988 -25.57445 -0 0 10.01701 -9.138309 11.14251 5.48147 4.940215 -20.93771 -2.168678 -89.62212 34.13275 16.83522 0 0 -28.51841 -2.033248 12.98603 18.56786
1.72231 98.96479 44.51347 0.1330047 -5.225931 3.476164 3.988392 -22.83681 0.01840306 -0 15.5465 -0 -4.600635 1.155883 -6.045415 -4.099476 14.348 -7.219696 -0 33.94084 -0 -5.666032 -14.80867 11.69416 -1.826536 -0.9240221 3.29009 2.923555 7.717671 -8.714829 1.076422 21.55657 7.656187 2.971088 -24.81738 9.350151 5.175644 -16.3677 11.08598 89.64656 35.98353 -24.462 -0 0 10.4551 -9.94091 11.35247 5.948174 4.908511 -20.6056 -2.156652 -89.68115 33.63264 16.97223 0 0 -27.49022 -1.968545 12.71507 18.3585
1.794591 99.74026 51.24517 0.196725 -6.149401 3.388827 4.695899 -18.54069 1.07684 -0 17.04814 -0 -4.504416 0.2550737 -6.254775 -3.791821 11.00906 -6.685147 -0 43.32984 -0 -6.374623 -12.09011 12.0965 -1.901201 -0.7864525 3.624615 2.664432 7.751954 -8.261392 1.12496 21.62251 7.580204 2.981757 -24.28494 9.211001 5.238187 -16.58761 11.09942 88.38903 35.92767 -22.66178 -0 0 11.41872 -10.98375 11.60297 6.647075 4.790146 -20.01837 -2.088164 -90.18362 33.10299 17.83281 0 0 -25.76061 -2.109356 12.33928 18.41165
1.845875 101.0227 57.72656 0.2406003 -6.904592 3.06203 5.33128 -13.273 2.311467 -0 18.61086 -0 -4.61175 -1.641104 -6.195332 -3.395996 6.536638 -6.587761 -0 51.56242 -0 -6.619722 -9.324045 13.10555 -1.979892 -0.6351006 4.085688 2.34215 7.791893 -7.682883 1.18061 21.68925 7.475823 2.985526 -23.69366 9.040654 5.312556 -16.96969 11.1297 86.78306 35.83767 -20.34748 -0 0 12.77948 -12.2095 11.87158 7.522938 4.60545 -19.24178 -1.977414 -91.01147 32.53764 19.22979 0 0 -23.50422 -2.401496 11.88584 18.65934
1.905216 102.6088 63.88694 0.2607392 -7.42934 2.516144 5.675771 -7.428487 3.310029 -0 19.63977 -0 -4.807962 -4.052201 -5.840317 -2.889418 1.234483 -6.609608 -0 56.61827 -0 -6.527602 -6.929078 14.40359 -2.058154 -0.480337 4.603206 1.992335 7.834054 -7.050797 1.239944 21.75561 7.355987 2.984463 -23.08142 8.857361 5.385578 -17.43095 11.16834 85.05237 35.67861 -17.82049 -0 0 14.31902 -13.51194 12.13036 8.476694 4.388664 -18.38496 -1.847821 -91.97962 31.94718 20.86196 0 0 -21.02225 -2.764346 11.39881 19.00148
2.023475 104.2206 69.81856 0.2650584 -7.716265 1.817534 5.65551 -1.500687 3.793836 -0 19.73774 -0 -4.958981 -6.424457 -5.221625 -2.233829 -4.431642 -6.431886 -0 57.31353 -0 -6.246281 -5.21142 15.65976 -2.131872 -0.3312053 5.118608 1.645923 7.875424 -6.425948 1.299625 21.81995 7.232316 2.980012 -22.48365 8.677011 5.447711 -17.90282 11.20807 83.38128 35.44566 -15.33773 -0 0 15.85581 -14.79478 12.36044 9.42169 4.168273 -17.53851 -1.718508 -92.94196 31.35484 22.48978 0 0 -18.56881 -3.135703 10.91671 19.36174
2.249307 105.6026 75.68107 0.2669537 -7.800853 1.048223 5.347216 4.089991 3.748435 -0 18.95893 -0 -4.993646 -8.4229 -4.416756 -1.421988 -9.993337 -5.936123 -0 53.87173 -0 -5.865441 -4.245037 16.70173 -2.199487 -0.1909474 5.609193 1.315183 7.914676 -5.832021 1.358282 21.88157 7.109713 2.972554 -21.91461 8.505999 5.496142 -18.35825 11.24577 81.83919 35.15059 -13.00035 -0 0 17.31966 -16.01857 12.55779 10.32293 3.95536 -16.7367 -1.596703 -93.84503 30.77633 24.0247 0 0 -16.24268 -3.493852 10.45433 19.71371
2.612411 106.591 81.60836 0.2832285 -7.751278 0.2840075 4.865053 9.051364 3.349575 -0 17.83103 -0 -4.891257 -9.914532 -3.538741 -0.5273462 -15.04109 -5.213214 -0 47.53861 -0 -5.432246 -3.924311 17.51155 -2.261202 -0.05884953 6.074467 1.00025 7.951335 -5.269139 1.416122 21.9407 6.988445 2.96168 -21.3735 8.344694 5.531435 -18.79532 11.28079 80.42583 34.80435 -10.81114 -0 0 18.70902 -17.18253 12.72582 11.17921 3.750079 -15.97875 -1.482364 -94.68927 30.21711 25.46626 0 0 -14.0458 -3.84123 10.01005 20.06059
3.12111 107.1434 87.67546 0.3326123 -7.662221 -0.4094302 4.274391 13.17087 2.831786 -0 17.18345 -0 -4.634167 -10.80247 -2.72467 0.2914585 -19.2005 -4.46414 -0 39.91711 -0 -4.999191 -4.079564 18.12825 -2.317165 0.06580283 6.509242 0.7032451 7.984493 -4.741648 1.473456 21.99789 6.869496 2.946812 -20.86017 8.194678 5.553184 -19.20534 11.31143 79.15178 34.41753 -8.789553 -0 0 20.0074 -18.2812 12.86772 11.98376 3.554873 -15.27018 -1.377234 -95.46212 29.68561 26.79282 0 0 -11.99952 -4.176337 9.5835 20.40036
